<svg class="railroad-diagram" height="80" viewBox="0 0 535.0 80" width="535.0" xmlns="http://www.w3.org/2000/svg">
<text style="text-anchor:start" font-family="Verdana" font-size="64" fill="darkgray" x="15" y="15">buildSpec</text>
<g transform="translate(.5 10.5)">
<style>/* <![CDATA[ */
	svg.railroad-diagram {
		background-color:hsl(30,20%,95%);
	}
	svg.railroad-diagram path {
		stroke-width:3;
		stroke:black;
		fill:rgba(0,0,0,0);
	}
	svg.railroad-diagram text {
		font:bold 14px monospace;
		text-anchor:middle;
	}
	svg.railroad-diagram text.label{
		text-anchor:start;
	}
	svg.railroad-diagram text.comment{
		font:italic 12px monospace;
	}
	svg.railroad-diagram rect{
		stroke-width:3;
		stroke:black;
		fill:hsl(120,100%,90%);
	}
	svg.railroad-diagram rect.group-box {
		stroke: gray;
		stroke-dasharray: 10 5;
		fill: none;
	}

/* ]]> */
</style><g>
<path d="M20 30v20m10 -20v20m-10 -10h20"></path></g><path d="M40 40h10"></path><g class="non-terminal ">
<path d="M50 40h0.0"></path><path d="M197.5 40h0.0"></path><rect height="22" width="147.5" x="50.0" y="29"></rect><text x="123.75" y="44">buildIdentifier</text></g><path d="M197.5 40h10"></path><path d="M207.5 40h10"></path><g class="terminal ">
<path d="M217.5 40h0.0"></path><path d="M246.0 40h0.0"></path><rect height="22" rx="10" ry="10" width="28.5" x="217.5" y="29"></rect><text x="231.75" y="44">:</text></g><path d="M246.0 40h10"></path><g>
<path d="M256.0 40h0.0"></path><path d="M446.5 40h0.0"></path><path d="M256.0 40a10 10 0 0 0 10 -10v0a10 10 0 0 1 10 -10"></path><g>
<path d="M276.0 20h150.5"></path></g><path d="M426.5 20a10 10 0 0 1 10 10v0a10 10 0 0 0 10 10"></path><path d="M256.0 40h20"></path><g>
<path d="M276.0 40h0.0"></path><path d="M426.5 40h0.0"></path><path d="M276.0 40h10"></path><g class="non-terminal ">
<path d="M286.0 40h0.0"></path><path d="M416.5 40h0.0"></path><rect height="22" width="130.5" x="286.0" y="29"></rect><text x="351.25" y="44">TagDefinition</text></g><path d="M416.5 40h10"></path><path d="M286.0 40a10 10 0 0 0 -10 10v0a10 10 0 0 0 10 10"></path><g>
<path d="M286.0 60h130.5"></path></g><path d="M416.5 60a10 10 0 0 0 10 -10v0a10 10 0 0 0 -10 -10"></path></g><path d="M426.5 40h20"></path></g><path d="M446.5 40h10"></path><g class="terminal ">
<path d="M456.5 40h0.0"></path><path d="M485.0 40h0.0"></path><rect height="22" rx="10" ry="10" width="28.5" x="456.5" y="29"></rect><text x="470.75" y="44">;</text></g><path d="M485.0 40h10"></path><path d="M 495.0 40 h 20 m -10 -10 v 20 m 10 -20 v 20"></path></g></svg>
