<svg class="railroad-diagram" height="80" viewBox="0 0 634.5 80" width="634.5" xmlns="http://www.w3.org/2000/svg">
<text style="text-anchor:start" font-family="Verdana" font-size="64" fill="darkgray" x="15" y="15">CodeDog_Program</text>
<g transform="translate(.5 10.5)">
<style>/* <![CDATA[ */
	svg.railroad-diagram {
		background-color:hsl(30,20%,95%);
	}
	svg.railroad-diagram path {
		stroke-width:3;
		stroke:black;
		fill:rgba(0,0,0,0);
	}
	svg.railroad-diagram text {
		font:bold 14px monospace;
		text-anchor:middle;
	}
	svg.railroad-diagram text.label{
		text-anchor:start;
	}
	svg.railroad-diagram text.comment{
		font:italic 12px monospace;
	}
	svg.railroad-diagram rect{
		stroke-width:3;
		stroke:black;
		fill:hsl(120,100%,90%);
	}
	svg.railroad-diagram rect.group-box {
		stroke: gray;
		stroke-dasharray: 10 5;
		fill: none;
	}

/* ]]> */
</style><g>
<path d="M20 30v20m10 -20v20m-10 -10h20"></path></g><g>
<path d="M40 40h0.0"></path><path d="M196.5 40h0.0"></path><path d="M40.0 40a10 10 0 0 0 10 -10v0a10 10 0 0 1 10 -10"></path><g>
<path d="M60.0 20h116.5"></path></g><path d="M176.5 20a10 10 0 0 1 10 10v0a10 10 0 0 0 10 10"></path><path d="M40.0 40h20"></path><g>
<path d="M60.0 40h0.0"></path><path d="M176.5 40h0.0"></path><path d="M60.0 40h10"></path><g class="non-terminal ">
<path d="M70.0 40h0.0"></path><path d="M166.5 40h0.0"></path><rect height="22" width="96.5" x="70.0" y="29"></rect><text x="118.25" y="44">BuildSpec</text></g><path d="M166.5 40h10"></path><path d="M70.0 40a10 10 0 0 0 -10 10v0a10 10 0 0 0 10 10"></path><g>
<path d="M70.0 60h96.5"></path></g><path d="M166.5 60a10 10 0 0 0 10 -10v0a10 10 0 0 0 -10 -10"></path></g><path d="M176.5 40h20"></path></g><g>
<path d="M196.5 40h0.0"></path><path d="M387.0 40h0.0"></path><path d="M196.5 40a10 10 0 0 0 10 -10v0a10 10 0 0 1 10 -10"></path><g>
<path d="M216.5 20h150.5"></path></g><path d="M367.0 20a10 10 0 0 1 10 10v0a10 10 0 0 0 10 10"></path><path d="M196.5 40h20"></path><g>
<path d="M216.5 40h0.0"></path><path d="M367.0 40h0.0"></path><path d="M216.5 40h10"></path><g class="non-terminal ">
<path d="M226.5 40h0.0"></path><path d="M357.0 40h0.0"></path><rect height="22" width="130.5" x="226.5" y="29"></rect><text x="291.75" y="44">TagDefinition</text></g><path d="M357.0 40h10"></path><path d="M226.5 40a10 10 0 0 0 -10 10v0a10 10 0 0 0 10 10"></path><g>
<path d="M226.5 60h130.5"></path></g><path d="M357.0 60a10 10 0 0 0 10 -10v0a10 10 0 0 0 -10 -10"></path></g><path d="M367.0 40h20"></path></g><g>
<path d="M387.0 40h0.0"></path><path d="M594.5 40h0.0"></path><path d="M387.0 40a10 10 0 0 0 10 -10v0a10 10 0 0 1 10 -10"></path><g>
<path d="M407.0 20h167.5"></path></g><path d="M574.5 20a10 10 0 0 1 10 10v0a10 10 0 0 0 10 10"></path><path d="M387.0 40h20"></path><g>
<path d="M407.0 40h0.0"></path><path d="M574.5 40h0.0"></path><path d="M407.0 40h10"></path><g class="non-terminal ">
<path d="M417.0 40h0.0"></path><path d="M564.5 40h0.0"></path><rect height="22" width="147.5" x="417.0" y="29"></rect><text x="490.75" y="44">ClassDefinition</text></g><path d="M564.5 40h10"></path><path d="M417.0 40a10 10 0 0 0 -10 10v0a10 10 0 0 0 10 10"></path><g>
<path d="M417.0 60h147.5"></path></g><path d="M564.5 60a10 10 0 0 0 10 -10v0a10 10 0 0 0 -10 -10"></path></g><path d="M574.5 40h20"></path></g><path d="M 594.5 40 h 20 m -10 -10 v 20 m 10 -20 v 20"></path></g></svg>
