<svg class="railroad-diagram" height="212" viewBox="0 0 487.0 212" width="487.0" xmlns="http://www.w3.org/2000/svg">
<text style="text-anchor:start" font-family="Verdana" font-size="64" fill="darkgray" x="15" y="15">TagDefinition</text>
<g transform="translate(.5 10.5)">
<style>/* <![CDATA[ */
	svg.railroad-diagram {
		background-color:hsl(30,20%,95%);
	}
	svg.railroad-diagram path {
		stroke-width:3;
		stroke:black;
		fill:rgba(0,0,0,0);
	}
	svg.railroad-diagram text {
		font:bold 14px monospace;
		text-anchor:middle;
	}
	svg.railroad-diagram text.label{
		text-anchor:start;
	}
	svg.railroad-diagram text.comment{
		font:italic 12px monospace;
	}
	svg.railroad-diagram rect{
		stroke-width:3;
		stroke:black;
		fill:hsl(120,100%,90%);
	}
	svg.railroad-diagram rect.group-box {
		stroke: gray;
		stroke-dasharray: 10 5;
		fill: none;
	}

/* ]]> */
</style><g>
<path d="M20 81v20m10 -20v20m-10 -10h20"></path></g><path d="M40 91h10"></path><g class="non-terminal ">
<path d="M50 91h0.0"></path><path d="M155.0 91h0.0"></path><rect height="22" width="105.0" x="50.0" y="80"></rect><text x="102.5" y="95">identifier</text></g><path d="M155.0 91h10"></path><path d="M165.0 91h10"></path><g class="terminal ">
<path d="M175.0 91h0.0"></path><path d="M203.5 91h0.0"></path><rect height="22" rx="10" ry="10" width="28.5" x="175.0" y="80"></rect><text x="189.25" y="95">=</text></g><path d="M203.5 91h10"></path><g>
<path d="M213.5 91h0.0"></path><path d="M447.0 91h0.0"></path><path d="M213.5 91a10 10 0 0 0 10 -10v-10a10 10 0 0 1 10 -10"></path><g class="non-terminal ">
<path d="M233.5 61h23.0"></path><path d="M404.0 61h23.0"></path><rect height="22" width="147.5" x="256.5" y="50"></rect><text x="330.25" y="65">multilineString</text></g><path d="M427.0 61a10 10 0 0 1 10 10v10a10 10 0 0 0 10 10"></path><path d="M213.5 91a10 10 0 0 0 10 -10v-40a10 10 0 0 1 10 -10"></path><g class="non-terminal ">
<path d="M233.5 31h35.75"></path><path d="M391.25 31h35.75"></path><rect height="22" width="122.0" x="269.25" y="20"></rect><text x="330.25" y="35">quotedString</text></g><path d="M427.0 31a10 10 0 0 1 10 10v40a10 10 0 0 0 10 10"></path><path d="M213.5 91h20"></path><g class="non-terminal ">
<path d="M233.5 91h44.25"></path><path d="M382.75 91h44.25"></path><rect height="22" width="105.0" x="277.75" y="80"></rect><text x="330.25" y="95">tagKeyword</text></g><path d="M427.0 91h20"></path><path d="M213.5 91a10 10 0 0 1 10 10v10a10 10 0 0 0 10 10"></path><g class="non-terminal ">
<path d="M233.5 121h57.0"></path><path d="M370.0 121h57.0"></path><rect height="22" width="79.5" x="290.5" y="110"></rect><text x="330.25" y="125">tagList</text></g><path d="M427.0 121a10 10 0 0 0 10 -10v-10a10 10 0 0 1 10 -10"></path><path d="M213.5 91a10 10 0 0 1 10 10v40a10 10 0 0 0 10 10"></path><g class="non-terminal ">
<path d="M233.5 151h61.25"></path><path d="M365.75 151h61.25"></path><rect height="22" width="71.0" x="294.75" y="140"></rect><text x="330.25" y="155">tagMap</text></g><path d="M427.0 151a10 10 0 0 0 10 -10v-40a10 10 0 0 1 10 -10"></path><path d="M213.5 91a10 10 0 0 1 10 10v70a10 10 0 0 0 10 10"></path><g>
<path d="M233.5 181h0.0"></path><path d="M427.0 181h0.0"></path><g class="terminal ">
<path d="M233.5 181h0.0"></path><path d="M262.0 181h0.0"></path><rect height="22" rx="10" ry="10" width="28.5" x="233.5" y="170"></rect><text x="247.75" y="185">&#60;</text></g><path d="M262.0 181h10"></path><path d="M272.0 181h10"></path><g class="non-terminal ">
<path d="M282.0 181h0.0"></path><path d="M378.5 181h0.0"></path><rect height="22" width="96.5" x="282.0" y="170"></rect><text x="330.25" y="185">fieldSpec</text></g><path d="M378.5 181h10"></path><path d="M388.5 181h10"></path><g class="terminal ">
<path d="M398.5 181h0.0"></path><path d="M427.0 181h0.0"></path><rect height="22" rx="10" ry="10" width="28.5" x="398.5" y="170"></rect><text x="412.75" y="185">></text></g></g><path d="M427.0 181a10 10 0 0 0 10 -10v-70a10 10 0 0 1 10 -10"></path></g><path d="M 447.0 91 h 20 m -10 -10 v 20 m 10 -20 v 20"></path></g></svg>
